<mxfile host="app.diagrams.net" agent="Mozilla/5.0 (Windows NT 10.0; Win64; x64) AppleWebKit/537.36 (KHTML, like Gecko) Chrome/134.0.0.0 Safari/537.36" version="26.1.0">
  <diagram id="prtHgNgQTEPvFCAcTncT" name="Page-1">
    <mxGraphModel dx="1050" dy="1691" grid="1" gridSize="10" guides="1" tooltips="1" connect="1" arrows="1" fold="1" page="1" pageScale="1" pageWidth="827" pageHeight="1169" math="0" shadow="0">
      <root>
        <mxCell id="0" />
        <mxCell id="1" parent="0" />
        <mxCell id="T_V5Q2Dp485rtMfQFN_E-1" value="dipartimenti" style="shape=table;startSize=30;container=1;collapsible=0;childLayout=tableLayout;strokeColor=default;fontSize=16;" vertex="1" parent="1">
          <mxGeometry x="550" y="200" width="180" height="190" as="geometry" />
        </mxCell>
        <mxCell id="T_V5Q2Dp485rtMfQFN_E-2" value="" style="shape=tableRow;horizontal=0;startSize=0;swimlaneHead=0;swimlaneBody=0;strokeColor=inherit;top=0;left=0;bottom=0;right=0;collapsible=0;dropTarget=0;fillColor=none;points=[[0,0.5],[1,0.5]];portConstraint=eastwest;fontSize=16;" vertex="1" parent="T_V5Q2Dp485rtMfQFN_E-1">
          <mxGeometry y="30" width="180" height="53" as="geometry" />
        </mxCell>
        <mxCell id="T_V5Q2Dp485rtMfQFN_E-3" value="id" style="shape=partialRectangle;html=1;whiteSpace=wrap;connectable=0;strokeColor=inherit;overflow=hidden;fillColor=none;top=0;left=0;bottom=0;right=0;pointerEvents=1;fontSize=16;" vertex="1" parent="T_V5Q2Dp485rtMfQFN_E-2">
          <mxGeometry width="60" height="53" as="geometry">
            <mxRectangle width="60" height="53" as="alternateBounds" />
          </mxGeometry>
        </mxCell>
        <mxCell id="T_V5Q2Dp485rtMfQFN_E-4" value="PK" style="shape=partialRectangle;html=1;whiteSpace=wrap;connectable=0;strokeColor=inherit;overflow=hidden;fillColor=none;top=0;left=0;bottom=0;right=0;pointerEvents=1;fontSize=16;" vertex="1" parent="T_V5Q2Dp485rtMfQFN_E-2">
          <mxGeometry x="60" width="60" height="53" as="geometry">
            <mxRectangle width="60" height="53" as="alternateBounds" />
          </mxGeometry>
        </mxCell>
        <mxCell id="T_V5Q2Dp485rtMfQFN_E-5" value="" style="shape=partialRectangle;html=1;whiteSpace=wrap;connectable=0;strokeColor=inherit;overflow=hidden;fillColor=none;top=0;left=0;bottom=0;right=0;pointerEvents=1;fontSize=16;" vertex="1" parent="T_V5Q2Dp485rtMfQFN_E-2">
          <mxGeometry x="120" width="60" height="53" as="geometry">
            <mxRectangle width="60" height="53" as="alternateBounds" />
          </mxGeometry>
        </mxCell>
        <mxCell id="T_V5Q2Dp485rtMfQFN_E-6" value="" style="shape=tableRow;horizontal=0;startSize=0;swimlaneHead=0;swimlaneBody=0;strokeColor=inherit;top=0;left=0;bottom=0;right=0;collapsible=0;dropTarget=0;fillColor=none;points=[[0,0.5],[1,0.5]];portConstraint=eastwest;fontSize=16;" vertex="1" parent="T_V5Q2Dp485rtMfQFN_E-1">
          <mxGeometry y="83" width="180" height="54" as="geometry" />
        </mxCell>
        <mxCell id="T_V5Q2Dp485rtMfQFN_E-7" value="nome" style="shape=partialRectangle;html=1;whiteSpace=wrap;connectable=0;strokeColor=inherit;overflow=hidden;fillColor=none;top=0;left=0;bottom=0;right=0;pointerEvents=1;fontSize=16;" vertex="1" parent="T_V5Q2Dp485rtMfQFN_E-6">
          <mxGeometry width="60" height="54" as="geometry">
            <mxRectangle width="60" height="54" as="alternateBounds" />
          </mxGeometry>
        </mxCell>
        <mxCell id="T_V5Q2Dp485rtMfQFN_E-8" value="" style="shape=partialRectangle;html=1;whiteSpace=wrap;connectable=0;strokeColor=inherit;overflow=hidden;fillColor=none;top=0;left=0;bottom=0;right=0;pointerEvents=1;fontSize=16;" vertex="1" parent="T_V5Q2Dp485rtMfQFN_E-6">
          <mxGeometry x="60" width="60" height="54" as="geometry">
            <mxRectangle width="60" height="54" as="alternateBounds" />
          </mxGeometry>
        </mxCell>
        <mxCell id="T_V5Q2Dp485rtMfQFN_E-9" value="" style="shape=partialRectangle;html=1;whiteSpace=wrap;connectable=0;strokeColor=inherit;overflow=hidden;fillColor=none;top=0;left=0;bottom=0;right=0;pointerEvents=1;fontSize=16;" vertex="1" parent="T_V5Q2Dp485rtMfQFN_E-6">
          <mxGeometry x="120" width="60" height="54" as="geometry">
            <mxRectangle width="60" height="54" as="alternateBounds" />
          </mxGeometry>
        </mxCell>
        <mxCell id="T_V5Q2Dp485rtMfQFN_E-10" value="" style="shape=tableRow;horizontal=0;startSize=0;swimlaneHead=0;swimlaneBody=0;strokeColor=inherit;top=0;left=0;bottom=0;right=0;collapsible=0;dropTarget=0;fillColor=none;points=[[0,0.5],[1,0.5]];portConstraint=eastwest;fontSize=16;" vertex="1" parent="T_V5Q2Dp485rtMfQFN_E-1">
          <mxGeometry y="137" width="180" height="53" as="geometry" />
        </mxCell>
        <mxCell id="T_V5Q2Dp485rtMfQFN_E-11" value="indirizzo" style="shape=partialRectangle;html=1;whiteSpace=wrap;connectable=0;strokeColor=inherit;overflow=hidden;fillColor=none;top=0;left=0;bottom=0;right=0;pointerEvents=1;fontSize=16;" vertex="1" parent="T_V5Q2Dp485rtMfQFN_E-10">
          <mxGeometry width="60" height="53" as="geometry">
            <mxRectangle width="60" height="53" as="alternateBounds" />
          </mxGeometry>
        </mxCell>
        <mxCell id="T_V5Q2Dp485rtMfQFN_E-12" value="" style="shape=partialRectangle;html=1;whiteSpace=wrap;connectable=0;strokeColor=inherit;overflow=hidden;fillColor=none;top=0;left=0;bottom=0;right=0;pointerEvents=1;fontSize=16;" vertex="1" parent="T_V5Q2Dp485rtMfQFN_E-10">
          <mxGeometry x="60" width="60" height="53" as="geometry">
            <mxRectangle width="60" height="53" as="alternateBounds" />
          </mxGeometry>
        </mxCell>
        <mxCell id="T_V5Q2Dp485rtMfQFN_E-13" value="" style="shape=partialRectangle;html=1;whiteSpace=wrap;connectable=0;strokeColor=inherit;overflow=hidden;fillColor=none;top=0;left=0;bottom=0;right=0;pointerEvents=1;fontSize=16;" vertex="1" parent="T_V5Q2Dp485rtMfQFN_E-10">
          <mxGeometry x="120" width="60" height="53" as="geometry">
            <mxRectangle width="60" height="53" as="alternateBounds" />
          </mxGeometry>
        </mxCell>
        <mxCell id="T_V5Q2Dp485rtMfQFN_E-14" value="gradi" style="shape=table;startSize=30;container=1;collapsible=0;childLayout=tableLayout;strokeColor=default;fontSize=16;" vertex="1" parent="1">
          <mxGeometry x="90" y="200" width="180" height="243" as="geometry" />
        </mxCell>
        <mxCell id="T_V5Q2Dp485rtMfQFN_E-15" value="" style="shape=tableRow;horizontal=0;startSize=0;swimlaneHead=0;swimlaneBody=0;strokeColor=inherit;top=0;left=0;bottom=0;right=0;collapsible=0;dropTarget=0;fillColor=none;points=[[0,0.5],[1,0.5]];portConstraint=eastwest;fontSize=16;" vertex="1" parent="T_V5Q2Dp485rtMfQFN_E-14">
          <mxGeometry y="30" width="180" height="53" as="geometry" />
        </mxCell>
        <mxCell id="T_V5Q2Dp485rtMfQFN_E-16" value="id" style="shape=partialRectangle;html=1;whiteSpace=wrap;connectable=0;strokeColor=inherit;overflow=hidden;fillColor=none;top=0;left=0;bottom=0;right=0;pointerEvents=1;fontSize=16;" vertex="1" parent="T_V5Q2Dp485rtMfQFN_E-15">
          <mxGeometry width="60" height="53" as="geometry">
            <mxRectangle width="60" height="53" as="alternateBounds" />
          </mxGeometry>
        </mxCell>
        <mxCell id="T_V5Q2Dp485rtMfQFN_E-17" value="PK" style="shape=partialRectangle;html=1;whiteSpace=wrap;connectable=0;strokeColor=inherit;overflow=hidden;fillColor=none;top=0;left=0;bottom=0;right=0;pointerEvents=1;fontSize=16;" vertex="1" parent="T_V5Q2Dp485rtMfQFN_E-15">
          <mxGeometry x="60" width="70" height="53" as="geometry">
            <mxRectangle width="70" height="53" as="alternateBounds" />
          </mxGeometry>
        </mxCell>
        <mxCell id="T_V5Q2Dp485rtMfQFN_E-18" value="" style="shape=partialRectangle;html=1;whiteSpace=wrap;connectable=0;strokeColor=inherit;overflow=hidden;fillColor=none;top=0;left=0;bottom=0;right=0;pointerEvents=1;fontSize=16;" vertex="1" parent="T_V5Q2Dp485rtMfQFN_E-15">
          <mxGeometry x="130" width="50" height="53" as="geometry">
            <mxRectangle width="50" height="53" as="alternateBounds" />
          </mxGeometry>
        </mxCell>
        <mxCell id="T_V5Q2Dp485rtMfQFN_E-19" value="" style="shape=tableRow;horizontal=0;startSize=0;swimlaneHead=0;swimlaneBody=0;strokeColor=inherit;top=0;left=0;bottom=0;right=0;collapsible=0;dropTarget=0;fillColor=none;points=[[0,0.5],[1,0.5]];portConstraint=eastwest;fontSize=16;" vertex="1" parent="T_V5Q2Dp485rtMfQFN_E-14">
          <mxGeometry y="83" width="180" height="54" as="geometry" />
        </mxCell>
        <mxCell id="T_V5Q2Dp485rtMfQFN_E-20" value="nome" style="shape=partialRectangle;html=1;whiteSpace=wrap;connectable=0;strokeColor=inherit;overflow=hidden;fillColor=none;top=0;left=0;bottom=0;right=0;pointerEvents=1;fontSize=16;" vertex="1" parent="T_V5Q2Dp485rtMfQFN_E-19">
          <mxGeometry width="60" height="54" as="geometry">
            <mxRectangle width="60" height="54" as="alternateBounds" />
          </mxGeometry>
        </mxCell>
        <mxCell id="T_V5Q2Dp485rtMfQFN_E-21" value="" style="shape=partialRectangle;html=1;whiteSpace=wrap;connectable=0;strokeColor=inherit;overflow=hidden;fillColor=none;top=0;left=0;bottom=0;right=0;pointerEvents=1;fontSize=16;" vertex="1" parent="T_V5Q2Dp485rtMfQFN_E-19">
          <mxGeometry x="60" width="70" height="54" as="geometry">
            <mxRectangle width="70" height="54" as="alternateBounds" />
          </mxGeometry>
        </mxCell>
        <mxCell id="T_V5Q2Dp485rtMfQFN_E-22" value="" style="shape=partialRectangle;html=1;whiteSpace=wrap;connectable=0;strokeColor=inherit;overflow=hidden;fillColor=none;top=0;left=0;bottom=0;right=0;pointerEvents=1;fontSize=16;" vertex="1" parent="T_V5Q2Dp485rtMfQFN_E-19">
          <mxGeometry x="130" width="50" height="54" as="geometry">
            <mxRectangle width="50" height="54" as="alternateBounds" />
          </mxGeometry>
        </mxCell>
        <mxCell id="T_V5Q2Dp485rtMfQFN_E-23" value="" style="shape=tableRow;horizontal=0;startSize=0;swimlaneHead=0;swimlaneBody=0;strokeColor=inherit;top=0;left=0;bottom=0;right=0;collapsible=0;dropTarget=0;fillColor=none;points=[[0,0.5],[1,0.5]];portConstraint=eastwest;fontSize=16;" vertex="1" parent="T_V5Q2Dp485rtMfQFN_E-14">
          <mxGeometry y="137" width="180" height="53" as="geometry" />
        </mxCell>
        <mxCell id="T_V5Q2Dp485rtMfQFN_E-24" value="corso di laurea" style="shape=partialRectangle;html=1;whiteSpace=wrap;connectable=0;strokeColor=inherit;overflow=hidden;fillColor=none;top=0;left=0;bottom=0;right=0;pointerEvents=1;fontSize=16;" vertex="1" parent="T_V5Q2Dp485rtMfQFN_E-23">
          <mxGeometry width="60" height="53" as="geometry">
            <mxRectangle width="60" height="53" as="alternateBounds" />
          </mxGeometry>
        </mxCell>
        <mxCell id="T_V5Q2Dp485rtMfQFN_E-25" value="" style="shape=partialRectangle;html=1;whiteSpace=wrap;connectable=0;strokeColor=inherit;overflow=hidden;fillColor=none;top=0;left=0;bottom=0;right=0;pointerEvents=1;fontSize=16;" vertex="1" parent="T_V5Q2Dp485rtMfQFN_E-23">
          <mxGeometry x="60" width="70" height="53" as="geometry">
            <mxRectangle width="70" height="53" as="alternateBounds" />
          </mxGeometry>
        </mxCell>
        <mxCell id="T_V5Q2Dp485rtMfQFN_E-26" value="" style="shape=partialRectangle;html=1;whiteSpace=wrap;connectable=0;strokeColor=inherit;overflow=hidden;fillColor=none;top=0;left=0;bottom=0;right=0;pointerEvents=1;fontSize=16;" vertex="1" parent="T_V5Q2Dp485rtMfQFN_E-23">
          <mxGeometry x="130" width="50" height="53" as="geometry">
            <mxRectangle width="50" height="53" as="alternateBounds" />
          </mxGeometry>
        </mxCell>
        <mxCell id="T_V5Q2Dp485rtMfQFN_E-29" style="shape=tableRow;horizontal=0;startSize=0;swimlaneHead=0;swimlaneBody=0;strokeColor=inherit;top=0;left=0;bottom=0;right=0;collapsible=0;dropTarget=0;fillColor=none;points=[[0,0.5],[1,0.5]];portConstraint=eastwest;fontSize=16;" vertex="1" parent="T_V5Q2Dp485rtMfQFN_E-14">
          <mxGeometry y="190" width="180" height="53" as="geometry" />
        </mxCell>
        <mxCell id="T_V5Q2Dp485rtMfQFN_E-30" value="dipartimento_id" style="shape=partialRectangle;html=1;whiteSpace=wrap;connectable=0;strokeColor=inherit;overflow=hidden;fillColor=none;top=0;left=0;bottom=0;right=0;pointerEvents=1;fontSize=16;" vertex="1" parent="T_V5Q2Dp485rtMfQFN_E-29">
          <mxGeometry width="60" height="53" as="geometry">
            <mxRectangle width="60" height="53" as="alternateBounds" />
          </mxGeometry>
        </mxCell>
        <mxCell id="T_V5Q2Dp485rtMfQFN_E-31" value="FK" style="shape=partialRectangle;html=1;whiteSpace=wrap;connectable=0;strokeColor=inherit;overflow=hidden;fillColor=none;top=0;left=0;bottom=0;right=0;pointerEvents=1;fontSize=16;" vertex="1" parent="T_V5Q2Dp485rtMfQFN_E-29">
          <mxGeometry x="60" width="70" height="53" as="geometry">
            <mxRectangle width="70" height="53" as="alternateBounds" />
          </mxGeometry>
        </mxCell>
        <mxCell id="T_V5Q2Dp485rtMfQFN_E-32" style="shape=partialRectangle;html=1;whiteSpace=wrap;connectable=0;strokeColor=inherit;overflow=hidden;fillColor=none;top=0;left=0;bottom=0;right=0;pointerEvents=1;fontSize=16;" vertex="1" parent="T_V5Q2Dp485rtMfQFN_E-29">
          <mxGeometry x="130" width="50" height="53" as="geometry">
            <mxRectangle width="50" height="53" as="alternateBounds" />
          </mxGeometry>
        </mxCell>
        <mxCell id="T_V5Q2Dp485rtMfQFN_E-33" style="edgeStyle=orthogonalEdgeStyle;rounded=0;orthogonalLoop=1;jettySize=auto;html=1;exitX=1;exitY=0.5;exitDx=0;exitDy=0;entryX=0;entryY=0.5;entryDx=0;entryDy=0;" edge="1" parent="1" source="T_V5Q2Dp485rtMfQFN_E-27" target="T_V5Q2Dp485rtMfQFN_E-2">
          <mxGeometry relative="1" as="geometry" />
        </mxCell>
        <mxCell id="T_V5Q2Dp485rtMfQFN_E-37" value="1" style="edgeLabel;html=1;align=center;verticalAlign=middle;resizable=0;points=[];fontSize=26;" vertex="1" connectable="0" parent="T_V5Q2Dp485rtMfQFN_E-33">
          <mxGeometry x="0.617" y="-1" relative="1" as="geometry">
            <mxPoint as="offset" />
          </mxGeometry>
        </mxCell>
        <mxCell id="T_V5Q2Dp485rtMfQFN_E-34" style="edgeStyle=orthogonalEdgeStyle;rounded=0;orthogonalLoop=1;jettySize=auto;html=1;exitX=0;exitY=0.5;exitDx=0;exitDy=0;entryX=1;entryY=0.5;entryDx=0;entryDy=0;" edge="1" parent="1" source="T_V5Q2Dp485rtMfQFN_E-27" target="T_V5Q2Dp485rtMfQFN_E-29">
          <mxGeometry relative="1" as="geometry" />
        </mxCell>
        <mxCell id="T_V5Q2Dp485rtMfQFN_E-35" value="N" style="edgeLabel;html=1;align=center;verticalAlign=middle;resizable=0;points=[];fontSize=26;" vertex="1" connectable="0" parent="T_V5Q2Dp485rtMfQFN_E-34">
          <mxGeometry x="0.79" y="1" relative="1" as="geometry">
            <mxPoint as="offset" />
          </mxGeometry>
        </mxCell>
        <mxCell id="T_V5Q2Dp485rtMfQFN_E-27" value="" style="rhombus;whiteSpace=wrap;html=1;" vertex="1" parent="1">
          <mxGeometry x="374" y="250" width="80" height="80" as="geometry" />
        </mxCell>
        <mxCell id="T_V5Q2Dp485rtMfQFN_E-38" value="Corsi" style="shape=table;startSize=30;container=1;collapsible=0;childLayout=tableLayout;strokeColor=default;fontSize=16;" vertex="1" parent="1">
          <mxGeometry x="90" y="-250" width="180" height="270" as="geometry" />
        </mxCell>
        <mxCell id="T_V5Q2Dp485rtMfQFN_E-39" value="" style="shape=tableRow;horizontal=0;startSize=0;swimlaneHead=0;swimlaneBody=0;strokeColor=inherit;top=0;left=0;bottom=0;right=0;collapsible=0;dropTarget=0;fillColor=none;points=[[0,0.5],[1,0.5]];portConstraint=eastwest;fontSize=16;" vertex="1" parent="T_V5Q2Dp485rtMfQFN_E-38">
          <mxGeometry y="30" width="180" height="60" as="geometry" />
        </mxCell>
        <mxCell id="T_V5Q2Dp485rtMfQFN_E-40" value="id" style="shape=partialRectangle;html=1;whiteSpace=wrap;connectable=0;strokeColor=inherit;overflow=hidden;fillColor=none;top=0;left=0;bottom=0;right=0;pointerEvents=1;fontSize=16;" vertex="1" parent="T_V5Q2Dp485rtMfQFN_E-39">
          <mxGeometry width="60" height="60" as="geometry">
            <mxRectangle width="60" height="60" as="alternateBounds" />
          </mxGeometry>
        </mxCell>
        <mxCell id="T_V5Q2Dp485rtMfQFN_E-41" value="PK" style="shape=partialRectangle;html=1;whiteSpace=wrap;connectable=0;strokeColor=inherit;overflow=hidden;fillColor=none;top=0;left=0;bottom=0;right=0;pointerEvents=1;fontSize=16;" vertex="1" parent="T_V5Q2Dp485rtMfQFN_E-39">
          <mxGeometry x="60" width="70" height="60" as="geometry">
            <mxRectangle width="70" height="60" as="alternateBounds" />
          </mxGeometry>
        </mxCell>
        <mxCell id="T_V5Q2Dp485rtMfQFN_E-42" value="" style="shape=partialRectangle;html=1;whiteSpace=wrap;connectable=0;strokeColor=inherit;overflow=hidden;fillColor=none;top=0;left=0;bottom=0;right=0;pointerEvents=1;fontSize=16;" vertex="1" parent="T_V5Q2Dp485rtMfQFN_E-39">
          <mxGeometry x="130" width="50" height="60" as="geometry">
            <mxRectangle width="50" height="60" as="alternateBounds" />
          </mxGeometry>
        </mxCell>
        <mxCell id="T_V5Q2Dp485rtMfQFN_E-43" value="" style="shape=tableRow;horizontal=0;startSize=0;swimlaneHead=0;swimlaneBody=0;strokeColor=inherit;top=0;left=0;bottom=0;right=0;collapsible=0;dropTarget=0;fillColor=none;points=[[0,0.5],[1,0.5]];portConstraint=eastwest;fontSize=16;" vertex="1" parent="T_V5Q2Dp485rtMfQFN_E-38">
          <mxGeometry y="90" width="180" height="54" as="geometry" />
        </mxCell>
        <mxCell id="T_V5Q2Dp485rtMfQFN_E-44" value="nome" style="shape=partialRectangle;html=1;whiteSpace=wrap;connectable=0;strokeColor=inherit;overflow=hidden;fillColor=none;top=0;left=0;bottom=0;right=0;pointerEvents=1;fontSize=16;" vertex="1" parent="T_V5Q2Dp485rtMfQFN_E-43">
          <mxGeometry width="60" height="54" as="geometry">
            <mxRectangle width="60" height="54" as="alternateBounds" />
          </mxGeometry>
        </mxCell>
        <mxCell id="T_V5Q2Dp485rtMfQFN_E-45" value="" style="shape=partialRectangle;html=1;whiteSpace=wrap;connectable=0;strokeColor=inherit;overflow=hidden;fillColor=none;top=0;left=0;bottom=0;right=0;pointerEvents=1;fontSize=16;" vertex="1" parent="T_V5Q2Dp485rtMfQFN_E-43">
          <mxGeometry x="60" width="70" height="54" as="geometry">
            <mxRectangle width="70" height="54" as="alternateBounds" />
          </mxGeometry>
        </mxCell>
        <mxCell id="T_V5Q2Dp485rtMfQFN_E-46" value="" style="shape=partialRectangle;html=1;whiteSpace=wrap;connectable=0;strokeColor=inherit;overflow=hidden;fillColor=none;top=0;left=0;bottom=0;right=0;pointerEvents=1;fontSize=16;" vertex="1" parent="T_V5Q2Dp485rtMfQFN_E-43">
          <mxGeometry x="130" width="50" height="54" as="geometry">
            <mxRectangle width="50" height="54" as="alternateBounds" />
          </mxGeometry>
        </mxCell>
        <mxCell id="T_V5Q2Dp485rtMfQFN_E-47" value="" style="shape=tableRow;horizontal=0;startSize=0;swimlaneHead=0;swimlaneBody=0;strokeColor=inherit;top=0;left=0;bottom=0;right=0;collapsible=0;dropTarget=0;fillColor=none;points=[[0,0.5],[1,0.5]];portConstraint=eastwest;fontSize=16;" vertex="1" parent="T_V5Q2Dp485rtMfQFN_E-38">
          <mxGeometry y="144" width="180" height="63" as="geometry" />
        </mxCell>
        <mxCell id="T_V5Q2Dp485rtMfQFN_E-48" value="Descrizione" style="shape=partialRectangle;html=1;whiteSpace=wrap;connectable=0;strokeColor=inherit;overflow=hidden;fillColor=none;top=0;left=0;bottom=0;right=0;pointerEvents=1;fontSize=16;" vertex="1" parent="T_V5Q2Dp485rtMfQFN_E-47">
          <mxGeometry width="60" height="63" as="geometry">
            <mxRectangle width="60" height="63" as="alternateBounds" />
          </mxGeometry>
        </mxCell>
        <mxCell id="T_V5Q2Dp485rtMfQFN_E-49" value="" style="shape=partialRectangle;html=1;whiteSpace=wrap;connectable=0;strokeColor=inherit;overflow=hidden;fillColor=none;top=0;left=0;bottom=0;right=0;pointerEvents=1;fontSize=16;" vertex="1" parent="T_V5Q2Dp485rtMfQFN_E-47">
          <mxGeometry x="60" width="70" height="63" as="geometry">
            <mxRectangle width="70" height="63" as="alternateBounds" />
          </mxGeometry>
        </mxCell>
        <mxCell id="T_V5Q2Dp485rtMfQFN_E-50" value="" style="shape=partialRectangle;html=1;whiteSpace=wrap;connectable=0;strokeColor=inherit;overflow=hidden;fillColor=none;top=0;left=0;bottom=0;right=0;pointerEvents=1;fontSize=16;" vertex="1" parent="T_V5Q2Dp485rtMfQFN_E-47">
          <mxGeometry x="130" width="50" height="63" as="geometry">
            <mxRectangle width="50" height="63" as="alternateBounds" />
          </mxGeometry>
        </mxCell>
        <mxCell id="T_V5Q2Dp485rtMfQFN_E-56" style="shape=tableRow;horizontal=0;startSize=0;swimlaneHead=0;swimlaneBody=0;strokeColor=inherit;top=0;left=0;bottom=0;right=0;collapsible=0;dropTarget=0;fillColor=none;points=[[0,0.5],[1,0.5]];portConstraint=eastwest;fontSize=16;" vertex="1" parent="T_V5Q2Dp485rtMfQFN_E-38">
          <mxGeometry y="207" width="180" height="63" as="geometry" />
        </mxCell>
        <mxCell id="T_V5Q2Dp485rtMfQFN_E-57" value="gradi_id" style="shape=partialRectangle;html=1;whiteSpace=wrap;connectable=0;strokeColor=inherit;overflow=hidden;fillColor=none;top=0;left=0;bottom=0;right=0;pointerEvents=1;fontSize=16;" vertex="1" parent="T_V5Q2Dp485rtMfQFN_E-56">
          <mxGeometry width="60" height="63" as="geometry">
            <mxRectangle width="60" height="63" as="alternateBounds" />
          </mxGeometry>
        </mxCell>
        <mxCell id="T_V5Q2Dp485rtMfQFN_E-58" value="FK" style="shape=partialRectangle;html=1;whiteSpace=wrap;connectable=0;strokeColor=inherit;overflow=hidden;fillColor=none;top=0;left=0;bottom=0;right=0;pointerEvents=1;fontSize=16;" vertex="1" parent="T_V5Q2Dp485rtMfQFN_E-56">
          <mxGeometry x="60" width="70" height="63" as="geometry">
            <mxRectangle width="70" height="63" as="alternateBounds" />
          </mxGeometry>
        </mxCell>
        <mxCell id="T_V5Q2Dp485rtMfQFN_E-59" style="shape=partialRectangle;html=1;whiteSpace=wrap;connectable=0;strokeColor=inherit;overflow=hidden;fillColor=none;top=0;left=0;bottom=0;right=0;pointerEvents=1;fontSize=16;" vertex="1" parent="T_V5Q2Dp485rtMfQFN_E-56">
          <mxGeometry x="130" width="50" height="63" as="geometry">
            <mxRectangle width="50" height="63" as="alternateBounds" />
          </mxGeometry>
        </mxCell>
        <mxCell id="T_V5Q2Dp485rtMfQFN_E-60" style="edgeStyle=orthogonalEdgeStyle;rounded=0;orthogonalLoop=1;jettySize=auto;html=1;exitX=0.5;exitY=0;exitDx=0;exitDy=0;entryX=1;entryY=0.5;entryDx=0;entryDy=0;" edge="1" parent="1" source="T_V5Q2Dp485rtMfQFN_E-55" target="T_V5Q2Dp485rtMfQFN_E-56">
          <mxGeometry relative="1" as="geometry" />
        </mxCell>
        <mxCell id="T_V5Q2Dp485rtMfQFN_E-62" value="N" style="edgeLabel;html=1;align=center;verticalAlign=middle;resizable=0;points=[];fontSize=26;" vertex="1" connectable="0" parent="T_V5Q2Dp485rtMfQFN_E-60">
          <mxGeometry x="0.5986" y="-1" relative="1" as="geometry">
            <mxPoint as="offset" />
          </mxGeometry>
        </mxCell>
        <mxCell id="T_V5Q2Dp485rtMfQFN_E-61" style="edgeStyle=orthogonalEdgeStyle;rounded=0;orthogonalLoop=1;jettySize=auto;html=1;exitX=0.5;exitY=1;exitDx=0;exitDy=0;entryX=1;entryY=0.5;entryDx=0;entryDy=0;" edge="1" parent="1" source="T_V5Q2Dp485rtMfQFN_E-55" target="T_V5Q2Dp485rtMfQFN_E-15">
          <mxGeometry relative="1" as="geometry" />
        </mxCell>
        <mxCell id="T_V5Q2Dp485rtMfQFN_E-65" value="1" style="edgeLabel;html=1;align=center;verticalAlign=middle;resizable=0;points=[];fontSize=26;" vertex="1" connectable="0" parent="T_V5Q2Dp485rtMfQFN_E-61">
          <mxGeometry x="0.585" relative="1" as="geometry">
            <mxPoint as="offset" />
          </mxGeometry>
        </mxCell>
        <mxCell id="T_V5Q2Dp485rtMfQFN_E-55" value="" style="rhombus;whiteSpace=wrap;html=1;" vertex="1" parent="1">
          <mxGeometry x="280" y="80" width="80" height="80" as="geometry" />
        </mxCell>
        <mxCell id="T_V5Q2Dp485rtMfQFN_E-66" value="Professori" style="shape=table;startSize=30;container=1;collapsible=0;childLayout=tableLayout;strokeColor=default;fontSize=16;" vertex="1" parent="1">
          <mxGeometry x="550" y="-236.5" width="180" height="207" as="geometry" />
        </mxCell>
        <mxCell id="T_V5Q2Dp485rtMfQFN_E-67" value="" style="shape=tableRow;horizontal=0;startSize=0;swimlaneHead=0;swimlaneBody=0;strokeColor=inherit;top=0;left=0;bottom=0;right=0;collapsible=0;dropTarget=0;fillColor=none;points=[[0,0.5],[1,0.5]];portConstraint=eastwest;fontSize=16;" vertex="1" parent="T_V5Q2Dp485rtMfQFN_E-66">
          <mxGeometry y="30" width="180" height="60" as="geometry" />
        </mxCell>
        <mxCell id="T_V5Q2Dp485rtMfQFN_E-68" value="id" style="shape=partialRectangle;html=1;whiteSpace=wrap;connectable=0;strokeColor=inherit;overflow=hidden;fillColor=none;top=0;left=0;bottom=0;right=0;pointerEvents=1;fontSize=16;" vertex="1" parent="T_V5Q2Dp485rtMfQFN_E-67">
          <mxGeometry width="60" height="60" as="geometry">
            <mxRectangle width="60" height="60" as="alternateBounds" />
          </mxGeometry>
        </mxCell>
        <mxCell id="T_V5Q2Dp485rtMfQFN_E-69" value="PK" style="shape=partialRectangle;html=1;whiteSpace=wrap;connectable=0;strokeColor=inherit;overflow=hidden;fillColor=none;top=0;left=0;bottom=0;right=0;pointerEvents=1;fontSize=16;" vertex="1" parent="T_V5Q2Dp485rtMfQFN_E-67">
          <mxGeometry x="60" width="70" height="60" as="geometry">
            <mxRectangle width="70" height="60" as="alternateBounds" />
          </mxGeometry>
        </mxCell>
        <mxCell id="T_V5Q2Dp485rtMfQFN_E-70" value="" style="shape=partialRectangle;html=1;whiteSpace=wrap;connectable=0;strokeColor=inherit;overflow=hidden;fillColor=none;top=0;left=0;bottom=0;right=0;pointerEvents=1;fontSize=16;" vertex="1" parent="T_V5Q2Dp485rtMfQFN_E-67">
          <mxGeometry x="130" width="50" height="60" as="geometry">
            <mxRectangle width="50" height="60" as="alternateBounds" />
          </mxGeometry>
        </mxCell>
        <mxCell id="T_V5Q2Dp485rtMfQFN_E-71" value="" style="shape=tableRow;horizontal=0;startSize=0;swimlaneHead=0;swimlaneBody=0;strokeColor=inherit;top=0;left=0;bottom=0;right=0;collapsible=0;dropTarget=0;fillColor=none;points=[[0,0.5],[1,0.5]];portConstraint=eastwest;fontSize=16;" vertex="1" parent="T_V5Q2Dp485rtMfQFN_E-66">
          <mxGeometry y="90" width="180" height="54" as="geometry" />
        </mxCell>
        <mxCell id="T_V5Q2Dp485rtMfQFN_E-72" value="nome" style="shape=partialRectangle;html=1;whiteSpace=wrap;connectable=0;strokeColor=inherit;overflow=hidden;fillColor=none;top=0;left=0;bottom=0;right=0;pointerEvents=1;fontSize=16;" vertex="1" parent="T_V5Q2Dp485rtMfQFN_E-71">
          <mxGeometry width="60" height="54" as="geometry">
            <mxRectangle width="60" height="54" as="alternateBounds" />
          </mxGeometry>
        </mxCell>
        <mxCell id="T_V5Q2Dp485rtMfQFN_E-73" value="" style="shape=partialRectangle;html=1;whiteSpace=wrap;connectable=0;strokeColor=inherit;overflow=hidden;fillColor=none;top=0;left=0;bottom=0;right=0;pointerEvents=1;fontSize=16;" vertex="1" parent="T_V5Q2Dp485rtMfQFN_E-71">
          <mxGeometry x="60" width="70" height="54" as="geometry">
            <mxRectangle width="70" height="54" as="alternateBounds" />
          </mxGeometry>
        </mxCell>
        <mxCell id="T_V5Q2Dp485rtMfQFN_E-74" value="" style="shape=partialRectangle;html=1;whiteSpace=wrap;connectable=0;strokeColor=inherit;overflow=hidden;fillColor=none;top=0;left=0;bottom=0;right=0;pointerEvents=1;fontSize=16;" vertex="1" parent="T_V5Q2Dp485rtMfQFN_E-71">
          <mxGeometry x="130" width="50" height="54" as="geometry">
            <mxRectangle width="50" height="54" as="alternateBounds" />
          </mxGeometry>
        </mxCell>
        <mxCell id="T_V5Q2Dp485rtMfQFN_E-75" value="" style="shape=tableRow;horizontal=0;startSize=0;swimlaneHead=0;swimlaneBody=0;strokeColor=inherit;top=0;left=0;bottom=0;right=0;collapsible=0;dropTarget=0;fillColor=none;points=[[0,0.5],[1,0.5]];portConstraint=eastwest;fontSize=16;" vertex="1" parent="T_V5Q2Dp485rtMfQFN_E-66">
          <mxGeometry y="144" width="180" height="63" as="geometry" />
        </mxCell>
        <mxCell id="T_V5Q2Dp485rtMfQFN_E-76" value="Cognome" style="shape=partialRectangle;html=1;whiteSpace=wrap;connectable=0;strokeColor=inherit;overflow=hidden;fillColor=none;top=0;left=0;bottom=0;right=0;pointerEvents=1;fontSize=16;" vertex="1" parent="T_V5Q2Dp485rtMfQFN_E-75">
          <mxGeometry width="60" height="63" as="geometry">
            <mxRectangle width="60" height="63" as="alternateBounds" />
          </mxGeometry>
        </mxCell>
        <mxCell id="T_V5Q2Dp485rtMfQFN_E-77" value="" style="shape=partialRectangle;html=1;whiteSpace=wrap;connectable=0;strokeColor=inherit;overflow=hidden;fillColor=none;top=0;left=0;bottom=0;right=0;pointerEvents=1;fontSize=16;" vertex="1" parent="T_V5Q2Dp485rtMfQFN_E-75">
          <mxGeometry x="60" width="70" height="63" as="geometry">
            <mxRectangle width="70" height="63" as="alternateBounds" />
          </mxGeometry>
        </mxCell>
        <mxCell id="T_V5Q2Dp485rtMfQFN_E-78" value="" style="shape=partialRectangle;html=1;whiteSpace=wrap;connectable=0;strokeColor=inherit;overflow=hidden;fillColor=none;top=0;left=0;bottom=0;right=0;pointerEvents=1;fontSize=16;" vertex="1" parent="T_V5Q2Dp485rtMfQFN_E-75">
          <mxGeometry x="130" width="50" height="63" as="geometry">
            <mxRectangle width="50" height="63" as="alternateBounds" />
          </mxGeometry>
        </mxCell>
        <mxCell id="T_V5Q2Dp485rtMfQFN_E-84" style="edgeStyle=orthogonalEdgeStyle;rounded=0;orthogonalLoop=1;jettySize=auto;html=1;exitX=0;exitY=0.5;exitDx=0;exitDy=0;entryX=1;entryY=0.5;entryDx=0;entryDy=0;" edge="1" parent="1" source="T_V5Q2Dp485rtMfQFN_E-83" target="T_V5Q2Dp485rtMfQFN_E-39">
          <mxGeometry relative="1" as="geometry" />
        </mxCell>
        <mxCell id="T_V5Q2Dp485rtMfQFN_E-88" value="N" style="edgeLabel;html=1;align=center;verticalAlign=middle;resizable=0;points=[];fontSize=26;" vertex="1" connectable="0" parent="T_V5Q2Dp485rtMfQFN_E-84">
          <mxGeometry x="0.6099" y="-1" relative="1" as="geometry">
            <mxPoint as="offset" />
          </mxGeometry>
        </mxCell>
        <mxCell id="T_V5Q2Dp485rtMfQFN_E-85" style="edgeStyle=orthogonalEdgeStyle;rounded=0;orthogonalLoop=1;jettySize=auto;html=1;exitX=1;exitY=0.5;exitDx=0;exitDy=0;" edge="1" parent="1" source="T_V5Q2Dp485rtMfQFN_E-83" target="T_V5Q2Dp485rtMfQFN_E-67">
          <mxGeometry relative="1" as="geometry" />
        </mxCell>
        <mxCell id="T_V5Q2Dp485rtMfQFN_E-87" value="N" style="edgeLabel;html=1;align=center;verticalAlign=middle;resizable=0;points=[];fontSize=26;" vertex="1" connectable="0" parent="T_V5Q2Dp485rtMfQFN_E-85">
          <mxGeometry x="0.59" relative="1" as="geometry">
            <mxPoint as="offset" />
          </mxGeometry>
        </mxCell>
        <mxCell id="T_V5Q2Dp485rtMfQFN_E-102" style="edgeStyle=orthogonalEdgeStyle;rounded=0;orthogonalLoop=1;jettySize=auto;html=1;exitX=0.5;exitY=0;exitDx=0;exitDy=0;" edge="1" parent="1" source="T_V5Q2Dp485rtMfQFN_E-83" target="T_V5Q2Dp485rtMfQFN_E-89">
          <mxGeometry relative="1" as="geometry" />
        </mxCell>
        <mxCell id="T_V5Q2Dp485rtMfQFN_E-103" value="PIVOT" style="edgeLabel;html=1;align=center;verticalAlign=middle;resizable=0;points=[];fontSize=13;" vertex="1" connectable="0" parent="T_V5Q2Dp485rtMfQFN_E-102">
          <mxGeometry x="0.1286" y="1" relative="1" as="geometry">
            <mxPoint as="offset" />
          </mxGeometry>
        </mxCell>
        <mxCell id="T_V5Q2Dp485rtMfQFN_E-83" value="" style="rhombus;whiteSpace=wrap;html=1;" vertex="1" parent="1">
          <mxGeometry x="374" y="-173" width="80" height="80" as="geometry" />
        </mxCell>
        <mxCell id="T_V5Q2Dp485rtMfQFN_E-89" value="Corso_Professori" style="shape=table;startSize=30;container=1;collapsible=0;childLayout=tableLayout;strokeColor=default;fontSize=16;" vertex="1" parent="1">
          <mxGeometry x="324" y="-530" width="180" height="144" as="geometry" />
        </mxCell>
        <mxCell id="T_V5Q2Dp485rtMfQFN_E-90" value="" style="shape=tableRow;horizontal=0;startSize=0;swimlaneHead=0;swimlaneBody=0;strokeColor=inherit;top=0;left=0;bottom=0;right=0;collapsible=0;dropTarget=0;fillColor=none;points=[[0,0.5],[1,0.5]];portConstraint=eastwest;fontSize=16;" vertex="1" parent="T_V5Q2Dp485rtMfQFN_E-89">
          <mxGeometry y="30" width="180" height="60" as="geometry" />
        </mxCell>
        <mxCell id="T_V5Q2Dp485rtMfQFN_E-91" value="Corsi_id" style="shape=partialRectangle;html=1;whiteSpace=wrap;connectable=0;strokeColor=inherit;overflow=hidden;fillColor=none;top=0;left=0;bottom=0;right=0;pointerEvents=1;fontSize=16;" vertex="1" parent="T_V5Q2Dp485rtMfQFN_E-90">
          <mxGeometry width="60" height="60" as="geometry">
            <mxRectangle width="60" height="60" as="alternateBounds" />
          </mxGeometry>
        </mxCell>
        <mxCell id="T_V5Q2Dp485rtMfQFN_E-92" value="FK" style="shape=partialRectangle;html=1;whiteSpace=wrap;connectable=0;strokeColor=inherit;overflow=hidden;fillColor=none;top=0;left=0;bottom=0;right=0;pointerEvents=1;fontSize=16;" vertex="1" parent="T_V5Q2Dp485rtMfQFN_E-90">
          <mxGeometry x="60" width="70" height="60" as="geometry">
            <mxRectangle width="70" height="60" as="alternateBounds" />
          </mxGeometry>
        </mxCell>
        <mxCell id="T_V5Q2Dp485rtMfQFN_E-93" value="" style="shape=partialRectangle;html=1;whiteSpace=wrap;connectable=0;strokeColor=inherit;overflow=hidden;fillColor=none;top=0;left=0;bottom=0;right=0;pointerEvents=1;fontSize=16;" vertex="1" parent="T_V5Q2Dp485rtMfQFN_E-90">
          <mxGeometry x="130" width="50" height="60" as="geometry">
            <mxRectangle width="50" height="60" as="alternateBounds" />
          </mxGeometry>
        </mxCell>
        <mxCell id="T_V5Q2Dp485rtMfQFN_E-94" value="" style="shape=tableRow;horizontal=0;startSize=0;swimlaneHead=0;swimlaneBody=0;strokeColor=inherit;top=0;left=0;bottom=0;right=0;collapsible=0;dropTarget=0;fillColor=none;points=[[0,0.5],[1,0.5]];portConstraint=eastwest;fontSize=16;" vertex="1" parent="T_V5Q2Dp485rtMfQFN_E-89">
          <mxGeometry y="90" width="180" height="54" as="geometry" />
        </mxCell>
        <mxCell id="T_V5Q2Dp485rtMfQFN_E-95" value="Professori_id" style="shape=partialRectangle;html=1;whiteSpace=wrap;connectable=0;strokeColor=inherit;overflow=hidden;fillColor=none;top=0;left=0;bottom=0;right=0;pointerEvents=1;fontSize=16;" vertex="1" parent="T_V5Q2Dp485rtMfQFN_E-94">
          <mxGeometry width="60" height="54" as="geometry">
            <mxRectangle width="60" height="54" as="alternateBounds" />
          </mxGeometry>
        </mxCell>
        <mxCell id="T_V5Q2Dp485rtMfQFN_E-96" value="FK" style="shape=partialRectangle;html=1;whiteSpace=wrap;connectable=0;strokeColor=inherit;overflow=hidden;fillColor=none;top=0;left=0;bottom=0;right=0;pointerEvents=1;fontSize=16;" vertex="1" parent="T_V5Q2Dp485rtMfQFN_E-94">
          <mxGeometry x="60" width="70" height="54" as="geometry">
            <mxRectangle width="70" height="54" as="alternateBounds" />
          </mxGeometry>
        </mxCell>
        <mxCell id="T_V5Q2Dp485rtMfQFN_E-97" value="" style="shape=partialRectangle;html=1;whiteSpace=wrap;connectable=0;strokeColor=inherit;overflow=hidden;fillColor=none;top=0;left=0;bottom=0;right=0;pointerEvents=1;fontSize=16;" vertex="1" parent="T_V5Q2Dp485rtMfQFN_E-94">
          <mxGeometry x="130" width="50" height="54" as="geometry">
            <mxRectangle width="50" height="54" as="alternateBounds" />
          </mxGeometry>
        </mxCell>
      </root>
    </mxGraphModel>
  </diagram>
</mxfile>
